<svg width="24" height="24" viewBox="0 0 24 24" fill="none" xmlns="http://www.w3.org/2000/svg">
  <path d="M12 15.5a3.5 3.5 0 1 0 0-7 3.5 3.5 0 0 0 0 7z" stroke="#111111" stroke-width="2"/>
  <path d="M19.4 13.5a7.53 7.53 0 0 0 .1-1.5 7.53 7.53 0 0 0-.1-1.5l2.1-1.6-2-3.4-2.5 1a7.32 7.32 0 0 0-2.6-1.5l-.4-2.7h-4l-.4 2.7a7.32 7.32 0 0 0-2.6 1.5l-2.5-1-2 3.4 2.1 1.6a7.53 7.53 0 0 0-.1 1.5 7.53 7.53 0 0 0 .1 1.5L2 15.1l2 3.4 2.5-1a7.32 7.32 0 0 0 2.6 1.5l.4 2.7h4l.4-2.7a7.32 7.32 0 0 0 2.6-1.5l2.5 1 2-3.4-2.1-1.6z" stroke="#111111" stroke-width="2" stroke-linejoin="round"/>
</svg>
